<?xml version="1.0" encoding="UTF-8"?>
<!DOCTYPE svg PUBLIC "-//W3C//DTD SVG 1.1//EN" "http://www.w3.org/Graphics/SVG/1.1/DTD/svg11.dtd">
<!-- Creator: CorelDRAW 2019 (64-Bit Оценочная версия) -->
<svg xmlns="http://www.w3.org/2000/svg" xml:space="preserve" width="100%" height="100%" version="1.1" style="shape-rendering:geometricPrecision; text-rendering:geometricPrecision; image-rendering:optimizeQuality; fill-rule:evenodd; clip-rule:evenodd"
viewBox="0 0 10089.39 3879.52"
 xmlns:xlink="http://www.w3.org/1999/xlink">
 <defs>
  <style type="text/css">
   <![CDATA[
    .fil0 {fill:#2B2A29}
    .fil1 {fill:#2B2A29;fill-rule:nonzero}
   ]]>
  </style>
 </defs>
 <g id="Слой_x0020_1">
  <metadata id="CorelCorpID_0Corel-Layer"/>
  <g id="layer101">
   <path class="fil0" d="M1683.99 3877.98c-17.87,-3.58 -96.16,-44.18 -155.6,-80.57 -39.96,-24.36 -226.74,-131.88 -498.64,-287.16 -68.86,-39.3 -131.56,-75.36 -139.68,-80.23 -14.62,-9.42 -50.35,-29.89 -121.81,-70.17 -21.45,-12.02 -89.99,-51.65 -152.68,-87.71 -62.37,-36.06 -134.16,-76.99 -159.17,-90.95 -25.02,-13.97 -64.32,-36.71 -87.71,-50.35 -23.07,-13.97 -79.59,-46.78 -125.07,-73.09 -154.62,-89.33 -200.1,-117.27 -213.42,-131.89 -3.9,-4.22 -12.34,-16.57 -18.52,-27.29l-11.69 -19.16 0.65 -942.37c0.65,-767.28 1.62,-944 5.2,-951.79 12.02,-26.96 45.15,-55.23 114.34,-96.48 77.64,-46.45 312.18,-181.59 362.2,-208.88 14.29,-7.47 51.65,-28.91 82.84,-47.1 67.24,-39.63 85.75,-48.73 99.4,-48.73 11.04,0 22.41,8.78 28.26,22.09 2.92,6.83 4.22,231.94 5.52,945.95 1.63,909.24 1.95,937.5 7.8,948.54 14.94,28.26 28.59,41.91 59.77,61.72 51,32.16 180.61,108.5 278.39,164.05 50.03,28.26 102.65,58.47 116.94,66.92 14.3,8.44 47.11,27.61 73.09,42.23 25.99,14.61 85.11,48.72 131.57,75.36 201.07,115.97 229.33,131.88 263.44,151.05l36.06 20.14 43.53 0 43.85 0 66.27 -38.33c102,-58.47 130.91,-75.36 181.91,-105.25 47.11,-27.61 203.68,-117.59 216.03,-124.09 3.57,-1.95 8.77,-5.2 11.36,-7.15 2.6,-1.95 43.53,-25.99 90.96,-53.27 86.73,-50.03 224.79,-131.24 305.03,-179.97 48.07,-28.91 65.62,-46.12 79.59,-77.96l8.44 -18.84 0 -529.49 0 -529.17 -8.44 -16.89c-19.17,-38.34 -28.59,-46.78 -90.96,-84.14 -69.52,-41.25 -161.12,-93.88 -262.8,-150.4 -40.93,-23.06 -87.71,-49.38 -103.3,-59.12 -15.92,-9.42 -29.24,-17.22 -29.56,-17.22 -0.65,0 -15.59,-8.12 -33.13,-18.19 -17.87,-10.07 -71.47,-40.28 -119.87,-66.92 -48.08,-26.96 -91.28,-51.65 -95.83,-54.57 -12.67,-8.77 -179.96,-100.05 -211.8,-115.32 -15.59,-7.8 -34.43,-14.94 -41.25,-16.24 -37.04,-6.18 -79.26,14.29 -326.8,159.17 -58.47,34.11 -183.53,103.95 -211.79,118.24 -11.05,5.52 -24.37,10.07 -29.56,10.07 -14.95,0 -24.37,-12.99 -27.29,-36.71 -4.22,-37.03 -7.15,-660.4 -3.25,-689.96 6.5,-47.43 24.69,-73.42 72.44,-103.3 65.62,-41.58 412.55,-240.71 465.5,-267.35 21.12,-10.39 47.75,-12.67 71.14,-5.85 9.75,2.93 35.41,14.3 56.53,25.02 58.14,30.21 234.21,128.63 254.35,142.6 4.55,2.93 15.59,9.75 24.36,14.62 24.37,13.32 237.79,135.14 284.24,162.1 22.41,12.99 83.16,48.07 134.81,77.31 51.97,29.56 122.14,69.84 155.92,89.33 75.04,43.53 190.36,109.8 297.24,170.87 43.85,25.01 104.6,60.09 134.81,77.96 30.53,17.87 74.39,43.21 97.45,56.52 184.19,105.9 221.22,131.57 228.69,158.85 11.37,39.96 11.69,76.02 11.04,949.84 -0.65,472.65 -2.27,881.95 -3.89,909.89 -1.95,34.11 -4.23,53.6 -7.8,60.1 -15.92,30.21 -47.75,53.92 -158.2,116.62 -40.28,23.06 -99.4,56.84 -131.56,75.68 -32.16,18.52 -99.4,57.18 -149.43,85.76 -86.73,49.7 -122.79,70.49 -211.15,121.82 -21.44,12.34 -79.91,45.8 -129.93,74.06 -50.03,28.27 -98.11,56.2 -107.2,61.72 -8.77,5.85 -41.91,24.69 -73.09,42.23 -31.19,17.87 -89.66,51 -129.94,74.39 -40.28,23.07 -130.91,75.37 -201.4,115.65 -168.92,96.8 -189.71,109.15 -242.01,143.9 -25.99,17.22 -87.06,49.05 -112.07,58.8 -25.66,9.42 -45.8,12.02 -63.67,8.45l0 0z"/>
   <path class="fil0" d="M1661.57 2579.58c-20.46,-7.47 -79.58,-39.63 -160.79,-87.71 -34.76,-20.47 -99.73,-58.8 -144.56,-85.11 -115.32,-67.57 -183.86,-110.77 -194.26,-122.14 -4.87,-5.2 -12.99,-17.87 -17.86,-27.61l-8.77 -17.87 0 -289.11 0 -289.11 7.14 -15.59c12.67,-27.29 25.34,-39.63 68.54,-66.6 45.16,-28.58 175.42,-104.92 216.67,-127.33 14.3,-7.8 39.96,-22.42 56.85,-32.49 37.68,-22.74 121.82,-68.87 162.1,-89.01 34.11,-17.21 49.38,-20.14 76.66,-15.26 36.38,6.82 65.62,22.41 389.81,210.82 55.88,32.49 127.99,80.24 137.41,90.96 12.67,15.26 20.14,32.16 23.39,54.9 1.95,12.99 3.25,133.83 3.25,294.63l0 272.87 -12.99 21.11c-7.15,11.7 -15.6,24.69 -19.17,28.59 -8.77,10.39 -73.09,49.37 -213.1,129.29 -65.94,37.68 -126.36,72.11 -133.83,76.66 -60.1,34.76 -131.24,73.41 -147.8,80.24 -27.29,10.71 -65.95,12.99 -88.69,4.87l0 0z"/>
  </g>
  <path class="fil1" d="M4881.38 1877.83c39.87,12.26 78.6,29.52 116.17,51.75 37.57,22.24 70.93,49.84 100.07,82.82 29.13,32.97 52.52,71.31 70.16,115.01 17.63,43.71 26.45,92.4 26.45,146.08 0,67.47 -10.35,130.35 -31.05,188.63 -20.71,58.27 -59.05,109.26 -115.02,152.97 -55.98,43.71 -134.57,78.21 -235.79,103.52 -101.21,25.3 -232.34,37.95 -393.36,37.95 -171.76,0 -299.05,-2.3 -381.86,-6.9 -24.54,-1.53 -45.24,-11.12 -62.11,-28.75 -16.87,-17.64 -25.3,-38.73 -25.3,-63.26l0 -1398.62c0,-23.01 8.43,-43.32 25.3,-60.96 16.87,-17.64 36.81,-27.99 59.81,-31.06 27.6,-1.53 52.14,-3.06 73.61,-4.6 21.47,-1.53 46.77,-3.06 75.91,-4.6 29.14,-1.53 65.95,-2.3 110.42,-2.3 44.47,0 102.75,0 174.83,0 110.41,0 205.11,11.12 284.09,33.36 78.98,22.23 143.39,51.76 193.23,88.56 49.84,36.81 86.27,79.36 109.27,127.67 23,48.31 34.5,98.53 34.5,150.67 0,30.68 -5.75,61.73 -17.25,93.17 -11.5,31.44 -26.84,60.58 -46.01,87.41 -19.17,26.84 -41.4,51.38 -66.71,73.61 -25.3,22.24 -51.75,39.49 -79.36,51.76l0 16.11zm-519.88 -101.22l101.22 0c69.01,0 124.98,-13.04 167.92,-39.11 42.94,-26.07 64.41,-68.24 64.41,-126.52 0,-49.07 -16.1,-87.41 -48.3,-115.01 -32.21,-27.61 -87.42,-41.41 -165.63,-41.41 -12.27,0 -29.14,0.77 -50.61,2.3 -21.47,1.53 -44.47,3.83 -69.01,6.9l0 312.85zm0 657.9c30.67,1.54 54.83,2.69 72.46,3.45 17.64,0.77 31.06,1.15 40.26,1.15 9.2,0 15.72,0 19.55,0 3.84,0 7.29,0 10.35,0 82.82,0 144.93,-13.42 186.33,-40.25 41.41,-26.84 62.11,-72.46 62.11,-136.87 0,-58.28 -21.47,-103.52 -64.41,-135.73 -42.94,-32.2 -114.25,-48.3 -213.93,-48.3l-112.72 0 0 356.55z"/>
  <path id="1" class="fil1" d="M5507.08 2738.16c-26.08,0 -47.93,-8.82 -65.56,-26.45 -17.64,-17.64 -26.46,-39.49 -26.46,-65.56l0 -906.35c0,-26.07 8.82,-47.92 26.46,-65.56 17.63,-17.63 39.48,-26.45 65.56,-26.45l202.43 0c26.07,0 47.92,8.82 65.56,26.45 17.63,17.64 26.45,39.49 26.45,65.56l0 906.35c0,26.07 -8.82,47.92 -26.45,65.56 -17.64,17.63 -39.49,26.45 -65.56,26.45l-202.43 0zm294.44 -1394.02c0,53.68 -17.25,97 -51.76,129.97 -34.5,32.97 -81.66,49.46 -141.47,49.46 -61.34,0 -109.27,-16.49 -143.77,-49.46 -34.51,-32.97 -51.76,-76.29 -51.76,-129.97 0,-53.67 17.25,-97 51.76,-129.97 34.5,-32.97 82.43,-49.46 143.77,-49.46 59.81,0 106.97,16.49 141.47,49.46 34.51,32.97 51.76,76.3 51.76,129.97z"/>
  <path id="2" class="fil1" d="M6910.29 2607.04c1.54,6.13 2.3,14.57 2.3,25.3 0,21.47 -6.9,40.26 -20.7,56.36 -13.8,16.1 -31.44,26.46 -52.91,31.06 -53.67,12.27 -110.03,21.47 -169.08,27.6 -59.04,6.14 -110.8,9.2 -155.27,9.2 -260.71,0 -391.06,-116.55 -391.06,-349.65l0 -506.08 -39.11 0c-26.07,0 -47.92,-8.82 -65.56,-26.46 -17.63,-17.63 -26.45,-39.48 -26.45,-65.56l0 -69.01c0,-26.07 8.82,-47.92 26.45,-65.56 17.64,-17.63 39.49,-26.45 65.56,-26.45l39.11 0 0 -128.82c0,-16.87 6.13,-33.74 18.4,-50.61 12.27,-16.87 26.07,-28.37 41.41,-34.5 35.27,-13.81 67.48,-26.84 96.61,-39.11 29.14,-12.27 61.35,-26.07 96.62,-41.41 18.4,-7.66 33.74,-11.5 46.01,-11.5 24.53,0 45.24,8.44 62.11,25.31 16.87,16.86 25.3,39.87 25.3,69.01l0 211.63 179.43 0c26.07,0 47.92,8.82 65.56,26.45 17.63,17.64 26.45,39.49 26.45,65.56l0 69.01c0,26.08 -8.82,47.93 -26.45,65.56 -17.64,17.64 -39.49,26.46 -65.56,26.46l-179.43 0 0 464.67c0,30.67 11.5,53.29 34.51,67.86 23,14.57 52.9,21.86 89.71,21.86 35.27,0 78.98,-6.14 131.12,-18.41 4.6,-1.53 11.5,-2.3 20.7,-2.3 19.94,0 38.34,5.75 55.21,17.26 16.87,11.5 28.37,27.22 34.51,47.15l34.5 108.12z"/>
  <path id="3" class="fil1" d="M7029.91 1739.8c0,-26.07 8.82,-47.92 26.46,-65.56 17.63,-17.63 39.48,-26.45 65.56,-26.45l202.43 0c26.07,0 47.92,8.82 65.56,26.45 17.63,17.64 26.45,39.49 26.45,65.56l0 621.1c0,41.41 13.04,72.46 39.11,93.17 26.07,20.7 59.81,31.05 101.21,31.05 26.07,0 55.98,-6.9 89.72,-20.7 33.74,-13.81 59.81,-35.28 78.21,-64.41l0 -660.21c0,-26.07 8.82,-47.92 26.45,-65.56 17.64,-17.63 39.49,-26.45 65.56,-26.45l202.44 0c26.07,0 47.92,8.82 65.56,26.45 17.63,17.64 26.45,39.49 26.45,65.56l0 906.35c0,26.07 -8.82,47.92 -26.45,65.56 -17.64,17.63 -39.49,26.45 -65.56,26.45l-149.53 0c-26.07,0 -47.92,-8.82 -65.56,-26.45 -17.63,-17.64 -26.45,-39.49 -26.45,-65.56l0 -13.81 -25.31 0c-44.47,42.94 -96.61,74.38 -156.42,94.32 -59.81,19.93 -114.25,29.9 -163.33,29.9 -56.74,0 -109.65,-5.75 -158.72,-17.25 -49.07,-11.5 -91.63,-31.44 -127.67,-59.81 -36.04,-28.37 -64.41,-66.33 -85.11,-113.87 -20.71,-47.54 -31.06,-106.58 -31.06,-177.12l0 -648.71z"/>
  <path id="4" class="fil1" d="M10089.39 2646.15c0,26.07 -8.82,47.92 -26.46,65.56 -17.63,17.63 -39.49,26.45 -65.56,26.45l-202.43 0c-26.07,0 -47.92,-8.82 -65.56,-26.45 -17.63,-17.64 -26.45,-39.49 -26.45,-65.56l0 -637.2c0,-29.14 -10.74,-54.45 -32.21,-75.92 -21.47,-21.47 -53.67,-32.2 -96.61,-32.2 -56.74,0 -106.59,28.37 -149.53,85.11l0 660.21c0,26.07 -8.81,47.92 -26.45,65.56 -17.64,17.63 -39.49,26.45 -65.56,26.45l-188.63 0c-26.07,0 -47.92,-8.82 -65.56,-26.45 -17.64,-17.64 -26.45,-39.49 -26.45,-65.56l0 -637.2c0,-29.14 -10.74,-54.45 -32.21,-75.92 -21.47,-21.47 -54.44,-32.2 -98.91,-32.2 -23.01,0 -49.08,6.9 -78.22,20.7 -29.13,13.8 -53.67,34.51 -73.61,62.11l0 662.51c0,26.07 -8.82,47.92 -26.45,65.56 -17.64,17.63 -39.49,26.45 -65.56,26.45l-202.43 0c-26.08,0 -47.93,-8.82 -65.56,-26.45 -17.64,-17.64 -26.46,-39.49 -26.46,-65.56l0 -906.35c0,-26.07 8.82,-47.92 26.46,-65.56 17.63,-17.63 39.48,-26.45 65.56,-26.45l135.72 0c26.07,0 47.92,8.82 65.56,26.45 17.63,17.64 26.45,39.49 26.45,65.56l0 16.11 27.61 0c19.93,-19.94 43.7,-37.96 71.31,-54.06 27.6,-16.1 55.59,-29.52 83.96,-40.26 28.37,-10.73 57.13,-18.78 86.26,-24.15 29.14,-5.37 55.98,-8.05 80.52,-8.05 53.67,0 108.5,8.05 164.47,24.15 55.98,16.1 103.13,50.22 141.47,102.37l20.71 0c49.07,-44.48 103.9,-76.68 164.47,-96.62 60.58,-19.94 115.4,-29.9 164.48,-29.9 46.01,0 91.63,4.98 136.87,14.95 45.24,9.97 86.26,27.99 123.07,54.06 36.81,26.07 66.33,61.34 88.56,105.81 22.24,44.48 33.36,100.45 33.36,167.93l0 674.01z"/>
 </g>
</svg>
